<svg width="11" height="17" viewBox="0 0 11 17" fill="none" xmlns="http://www.w3.org/2000/svg">
<path d="M5.29901 16.6364V0.272726H6.3473V16.6364H5.29901ZM8.57812 5.34801C8.50994 4.7429 8.22869 4.27415 7.73438 3.94176C7.24006 3.60511 6.6179 3.43679 5.8679 3.43679C5.33097 3.43679 4.86648 3.52202 4.47443 3.69247C4.08239 3.85866 3.7777 4.08878 3.56037 4.38281C3.3473 4.67258 3.24077 5.00284 3.24077 5.37358C3.24077 5.68466 3.31321 5.95312 3.4581 6.17898C3.60724 6.40483 3.80114 6.59446 4.03977 6.74787C4.28267 6.89702 4.54261 7.02273 4.8196 7.125C5.09659 7.22301 5.36293 7.30398 5.61861 7.3679L6.89702 7.70028C7.31463 7.80256 7.7429 7.94105 8.18182 8.11577C8.62074 8.29048 9.0277 8.5206 9.4027 8.80611C9.7777 9.09162 10.0803 9.44531 10.3104 9.86719C10.5447 10.2891 10.6619 10.794 10.6619 11.3821C10.6619 12.1236 10.4702 12.782 10.0866 13.3572C9.70739 13.9325 9.15554 14.3864 8.43111 14.7188C7.71094 15.0511 6.83949 15.2173 5.81676 15.2173C4.83665 15.2173 3.98864 15.0618 3.27273 14.7507C2.55682 14.4396 1.99645 13.9986 1.59162 13.4276C1.18679 12.8523 0.963068 12.1705 0.920455 11.3821H2.90199C2.94034 11.8551 3.09375 12.2493 3.36222 12.5646C3.63494 12.8757 3.98224 13.108 4.40412 13.2614C4.83026 13.4105 5.29688 13.4851 5.80398 13.4851C6.36222 13.4851 6.85867 13.3977 7.29332 13.223C7.73224 13.044 8.07742 12.7969 8.32884 12.4815C8.58026 12.1619 8.70597 11.7891 8.70597 11.3629C8.70597 10.9751 8.59517 10.6577 8.37358 10.4105C8.15625 10.1634 7.86009 9.95881 7.48509 9.79688C7.11435 9.63494 6.6946 9.49219 6.22585 9.36861L4.67898 8.94673C3.63068 8.66122 2.79972 8.24148 2.18608 7.6875C1.5767 7.13352 1.27202 6.40057 1.27202 5.48864C1.27202 4.73437 1.47656 4.07599 1.88565 3.51349C2.29474 2.95099 2.84872 2.5142 3.54759 2.20312C4.24645 1.88778 5.0348 1.73011 5.91264 1.73011C6.79901 1.73011 7.58097 1.88565 8.25852 2.19673C8.94034 2.50781 9.47727 2.93608 9.86932 3.48153C10.2614 4.02273 10.4659 4.64489 10.483 5.34801H8.57812Z" fill="#A6A6A6"/>
</svg>
